<svg xmlns="http://www.w3.org/2000/svg" width="18" height="18" viewBox="0 0 18 18" fill="none">
  <g clip-path="url(#clip0_48_1310)">
    <path d="M17.1647 13.7482C16.8774 14.3421 16.5374 14.8888 16.1434 15.3914C15.6064 16.0767 15.1667 16.551 14.8279 16.8144C14.3026 17.2467 13.7398 17.4681 13.1371 17.4807C12.7045 17.4807 12.1827 17.3705 11.5754 17.147C10.966 16.9245 10.406 16.8144 9.89399 16.8144C9.35699 16.8144 8.78105 16.9245 8.16502 17.147C7.54804 17.3705 7.05102 17.487 6.67101 17.4985C6.09308 17.5206 5.51703 17.2929 4.94204 16.8144C4.57504 16.5279 4.11601 16.0368 3.5661 15.3411C2.9761 14.5981 2.49103 13.7366 2.11102 12.7544C1.70405 11.6935 1.50003 10.6662 1.50003 9.67164C1.50003 8.53236 1.7751 7.54975 2.32606 6.72633C2.75907 6.06492 3.33512 5.54318 4.05609 5.16017C4.77706 4.77716 5.55608 4.58198 6.395 4.56949C6.85404 4.56949 7.456 4.69657 8.20406 4.94631C8.95001 5.1969 9.42898 5.32397 9.63897 5.32397C9.79597 5.32397 10.3281 5.17538 11.2301 4.87915C12.0831 4.60443 12.803 4.49068 13.3927 4.53549C14.9909 4.65092 16.1915 5.21474 16.99 6.23051C15.5607 7.00556 14.8537 8.09111 14.8678 9.4837C14.8807 10.5684 15.3203 11.4711 16.1845 12.1878C16.5761 12.5204 17.0134 12.7775 17.5 12.9601C17.3945 13.234 17.2831 13.4963 17.1647 13.7482ZM13.4994 0.840097C13.4994 1.69029 13.1524 2.48411 12.4606 3.21887C11.6258 4.09235 10.616 4.59709 9.52102 4.51744C9.50707 4.41544 9.49898 4.3081 9.49898 4.19529C9.49898 3.37911 9.89599 2.50563 10.601 1.79144C10.953 1.42983 11.4007 1.12916 11.9435 0.889311C12.4852 0.653039 12.9976 0.522376 13.4795 0.5C13.4936 0.613658 13.4994 0.727334 13.4994 0.840097Z" fill="black"/>
  </g>
  <defs>
    <clipPath id="clip0_48_1310">
      <rect width="17.9999" height="18" fill="white"/>
    </clipPath>
  </defs>
</svg>
