<svg width="20" height="20" viewBox="0 0 20 20" fill="none" xmlns="http://www.w3.org/2000/svg">
  <path d="M4.4145 11.1533C4.5322 11.2421 4.66758 11.3045 4.8115 11.3365C4.95542 11.3684 5.10452 11.3691 5.24871 11.3384L6.62015 11.0469C6.88183 10.9909 7.111 10.8343 7.25823 10.6108C7.48443 10.7547 7.75792 10.8044 8.02027 10.7493C8.31972 10.661 9.53355 10.4985 9.76486 10.2938L10.9057 15.6595C10.9243 15.7392 10.9735 15.8084 11.0426 15.8523C11.1117 15.8961 11.1952 15.9112 11.2752 15.8942C11.3553 15.8771 11.4255 15.8294 11.4707 15.7612C11.516 15.6931 11.5328 15.6099 11.5174 15.5295L10.3766 10.1638C10.5121 10.191 10.6518 10.1902 10.787 10.1613L12.1559 9.87024C12.4177 9.81292 12.6469 9.65598 12.7949 9.43264C13.0204 9.57761 13.2938 9.62791 13.5561 9.57264L14.9275 9.28114C15.0712 9.24949 15.2066 9.1876 15.3245 9.09958C15.4425 9.01157 15.5404 8.89944 15.6116 8.77067C15.6829 8.6419 15.7259 8.49943 15.7378 8.35274C15.7498 8.20604 15.7303 8.05849 15.6808 7.9199C13.1257 1.46371 3.71308 3.46562 4.00672 10.4022C4.01695 10.5493 4.05865 10.6925 4.129 10.822C4.19936 10.9516 4.29672 11.0646 4.4145 11.1533ZM15.0939 8.13435C15.1134 8.18887 15.1211 8.24691 15.1164 8.30463C15.1117 8.36234 15.0948 8.41839 15.0667 8.46905C15.0387 8.51971 15.0002 8.56381 14.9537 8.59842C14.9073 8.63302 14.854 8.65733 14.7975 8.66974L13.4261 8.96124C13.3261 8.98196 13.2219 8.96381 13.1348 8.91048C13.0477 8.85715 12.9842 8.77265 12.9572 8.67416C12.5294 7.17022 11.8339 5.63939 10.6121 4.636C11.6096 4.74765 12.5565 5.13374 13.3477 5.75133C14.1389 6.36892 14.7434 7.19383 15.0939 8.13435ZM10.7407 5.62564C11.3101 6.30836 11.7556 7.08555 12.0568 7.92196C12.1417 8.27052 12.4511 8.72315 12.289 9.07097C12.2606 9.11878 12.2225 9.16016 12.1772 9.1925C12.1319 9.22483 12.0804 9.24743 12.0259 9.25885L10.6569 9.54989C10.5527 9.57189 10.444 9.55163 10.3547 9.49358C10.2653 9.43553 10.2027 9.34441 10.1804 9.24022L9.21545 4.70206C9.84241 4.76555 10.2599 5.11027 10.7407 5.62564ZM7.42458 6.95628C7.64214 5.95512 7.89065 5.26074 8.60393 4.83156L9.56875 9.37027C9.57976 9.42189 9.58048 9.47517 9.57088 9.52708C9.56128 9.57898 9.54155 9.62848 9.5128 9.67275C9.48405 9.71701 9.44686 9.75518 9.40335 9.78506C9.35985 9.81495 9.31087 9.83596 9.25924 9.8469L7.89024 10.1379C7.52087 10.2118 7.37512 9.85928 7.37621 9.55126C7.2632 8.68867 7.2795 7.81406 7.42458 6.95628ZM7.30175 5.33974C6.59324 6.75474 6.58113 8.43361 6.80175 9.98272C6.8172 10.0837 6.79356 10.1867 6.73566 10.2709C6.67776 10.355 6.58994 10.4139 6.49012 10.4355L5.11869 10.727C5.06203 10.739 5.00347 10.7386 4.94694 10.7261C4.89041 10.7135 4.83723 10.689 4.79097 10.6542C4.74471 10.6193 4.70643 10.575 4.67872 10.5242C4.65101 10.4733 4.6345 10.4171 4.63031 10.3594C4.56771 9.35746 4.78426 8.35781 5.25589 7.47162C5.72752 6.58543 6.43573 5.84745 7.30175 5.33974Z" fill="black"/>
  <path fill-rule="evenodd" clip-rule="evenodd" d="M12.0568 7.92196C11.7556 7.08555 11.3101 6.30836 10.7407 5.62564C10.2599 5.11027 9.84241 4.76555 9.21545 4.70206L10.1804 9.24022C10.2027 9.34441 10.2653 9.43553 10.3547 9.49358C10.444 9.55163 10.5527 9.57189 10.6569 9.54989L12.0259 9.25885C12.0804 9.24743 12.1319 9.22483 12.1772 9.1925C12.2225 9.16016 12.2606 9.11878 12.289 9.07097C12.4027 8.82702 12.2844 8.53151 12.1744 8.25651C12.1275 8.13942 12.0822 8.02605 12.0568 7.92196Z" fill="white"/>
  <path fill-rule="evenodd" clip-rule="evenodd" d="M8.60393 4.83156C7.89065 5.26074 7.64214 5.95512 7.42458 6.95628C7.2795 7.81406 7.2632 8.68867 7.37621 9.55126C7.37512 9.85928 7.52087 10.2118 7.89024 10.1379L9.25924 9.8469C9.31087 9.83596 9.35985 9.81495 9.40335 9.78506C9.44686 9.75518 9.48405 9.71701 9.5128 9.67275C9.54155 9.62848 9.56128 9.57898 9.57088 9.52708C9.58048 9.47517 9.57976 9.42189 9.56875 9.37027L8.60393 4.83156Z" fill="#0080FF"/>
  <path fill-rule="evenodd" clip-rule="evenodd" d="M6.80175 9.98272C6.58113 8.43361 6.59324 6.75474 7.30175 5.33974C6.43573 5.84745 5.72752 6.58543 5.25589 7.47162C4.78426 8.35781 4.56771 9.35746 4.63031 10.3594C4.6345 10.4171 4.65101 10.4733 4.67872 10.5242C4.70643 10.575 4.74471 10.6193 4.79097 10.6542C4.83723 10.689 4.89041 10.7135 4.94694 10.7261C5.00347 10.7386 5.06203 10.739 5.11869 10.727L6.49012 10.4355C6.58994 10.4139 6.67776 10.355 6.73566 10.2709C6.79356 10.1867 6.8172 10.0837 6.80175 9.98272Z" fill="white"/>
  <path fill-rule="evenodd" clip-rule="evenodd" d="M15.1164 8.30463C15.1211 8.24691 15.1134 8.18887 15.0939 8.13435C14.7434 7.19383 14.1389 6.36892 13.3477 5.75133C12.5565 5.13374 11.6096 4.74765 10.6121 4.636C11.8339 5.63939 12.5294 7.17022 12.9572 8.67416C12.9842 8.77265 13.0477 8.85715 13.1348 8.91048C13.2219 8.96381 13.3261 8.98196 13.4261 8.96124L14.7975 8.66974C14.854 8.65733 14.9073 8.63302 14.9537 8.59842C15.0002 8.56381 15.0387 8.51971 15.0667 8.46905C15.0948 8.41839 15.1117 8.36234 15.1164 8.30463Z" fill="#0080FF"/>
  <path d="M16.7421 15.8252C16.1645 15.8461 15.5883 15.7109 15.0311 15.4237C14.443 15.1221 13.8349 14.9795 13.2253 15C12.6158 14.9795 12.0078 15.1221 11.4197 15.4237C10.8625 15.7109 10.2862 15.8461 9.70852 15.8251C9.13095 15.8461 8.55478 15.7109 7.99772 15.4237C7.4097 15.1221 6.80177 14.9795 6.1923 15C6.14102 15.0015 6.09211 15.0408 6.05614 15.1094C6.02016 15.1781 6 15.2705 6 15.3667C6 15.463 6.02017 15.5554 6.05615 15.624C6.09212 15.6926 6.14103 15.732 6.19231 15.7335C6.76988 15.7125 7.34605 15.8477 7.9031 16.1349C8.49112 16.4365 9.09905 16.5792 9.70853 16.5586C10.3181 16.5792 10.9262 16.4365 11.5143 16.1349C12.0715 15.8477 12.6477 15.7125 13.2253 15.7335C13.803 15.7125 14.3793 15.8477 14.9365 16.1349C15.5246 16.4365 16.1326 16.5791 16.7421 16.5586C16.7939 16.5586 16.8436 16.52 16.8803 16.4512C16.9169 16.3824 16.9375 16.2891 16.9375 16.1919C16.9375 16.0946 16.9169 16.0013 16.8803 15.9326C16.8436 15.8638 16.7939 15.8252 16.7421 15.8252Z" fill="black"/>
</svg>
