<svg width="20" height="20" viewBox="0 0 20 20" fill="none" xmlns="http://www.w3.org/2000/svg">
  <path d="M13.5308 16.9501H5.73734C5.48904 16.9501 5.28772 17.1512 5.28772 17.3998C5.28772 17.6478 5.48904 17.8494 5.73734 17.8494H13.5308C13.7793 17.8494 13.9804 17.6478 13.9804 17.3998C13.9804 17.1512 13.7793 16.9501 13.5308 16.9501Z" fill="black"/>
  <path d="M16.5723 9.27439C16.6553 8.22847 16.6911 7.21724 16.6975 7.01967C16.7014 6.89804 16.656 6.77992 16.5712 6.69254C16.4867 6.60472 16.3699 6.55554 16.2483 6.55554H2.44989C2.32781 6.55554 2.21146 6.60472 2.12671 6.69254C2.04196 6.77992 1.99629 6.89804 2.00024 7.01967C2.01254 7.39467 2.13021 10.7089 2.47751 11.6152C3.15196 13.376 4.81591 16.3297 8.37979 16.3297H10.3184C12.7325 16.3297 14.2737 14.9742 15.2274 13.5524C15.5868 13.7808 16.0118 13.9151 16.4683 13.9151C17.7493 13.9151 18.7915 12.8732 18.7915 11.5919C18.7915 10.3462 17.8049 9.32927 16.5723 9.27439ZM15.54 10.5148C15.4922 10.8639 15.4388 11.1418 15.3806 11.2933C15.2963 11.5138 15.2015 11.739 15.0957 11.9647C14.9446 12.2883 14.7708 12.6132 14.5707 12.9276C13.7125 14.2761 12.3768 15.4304 10.3184 15.4304H8.37981C5.50551 15.4304 4.04026 13.1805 3.31709 11.2933C3.11994 10.7787 2.97699 8.83222 2.91709 7.45479H15.7811C15.7548 8.05634 15.7126 8.76592 15.6573 9.41797C15.623 9.81929 15.5837 10.1965 15.54 10.5148ZM16.4683 13.0159C16.1807 13.0159 15.9128 12.9294 15.6889 12.7819C15.9102 12.3674 16.0856 11.9673 16.2206 11.6152C16.3322 11.3232 16.42 10.7818 16.4885 10.1693C17.2644 10.1802 17.8922 10.8139 17.8922 11.5919C17.8922 12.377 17.2534 13.0159 16.4683 13.0159Z" fill="black"/>
  <path fill-rule="evenodd" clip-rule="evenodd" d="M15.3806 11.2933C15.4388 11.1418 15.4922 10.8639 15.54 10.5148C15.5837 10.1965 15.623 9.81929 15.6573 9.41797C15.7126 8.76592 15.7548 8.05634 15.7811 7.45479H2.91709C2.97699 8.83222 3.11994 10.7787 3.31709 11.2933C4.04026 13.1805 5.50551 15.4304 8.37981 15.4304H10.3184C12.3768 15.4304 13.7125 14.2761 14.5707 12.9276C14.7708 12.6132 14.9446 12.2883 15.0957 11.9647C15.2015 11.739 15.2963 11.5138 15.3806 11.2933Z" fill="#8D6E63"/>
  <path fill-rule="evenodd" clip-rule="evenodd" d="M4.28467 1.52899C4.28467 1.31347 4.45964 1.13849 4.67516 1.13849C4.89069 1.13849 5.06567 1.31347 5.06567 1.52899C5.06567 1.88138 5.18337 1.98481 5.26964 2.14058C5.36817 2.31845 5.45591 2.53243 5.45591 2.93481C5.45591 3.37204 5.35395 3.58633 5.24423 3.77356C5.16372 3.91094 5.06567 4.01979 5.06567 4.34062C5.06567 4.61033 5.13331 4.73719 5.20258 4.85885C5.25138 4.94456 5.29964 5.02921 5.34083 5.12961C5.42263 5.32901 5.32715 5.55731 5.12775 5.63911C4.92835 5.72091 4.70006 5.62542 4.61826 5.42602C4.4861 5.10386 4.28467 4.95018 4.28467 4.34062C4.28467 3.7991 4.43452 3.61058 4.57039 3.37869C4.62824 3.28 4.67491 3.1653 4.67491 2.93481C4.67491 2.58242 4.55722 2.47899 4.47094 2.32321C4.37241 2.14534 4.28467 1.93136 4.28467 1.52899Z" fill="black"/>
  <path fill-rule="evenodd" clip-rule="evenodd" d="M13.032 1.52899C13.032 1.31347 13.207 1.13849 13.4225 1.13849C13.638 1.13849 13.813 1.31347 13.813 1.52899C13.813 1.88138 13.9307 1.98481 14.017 2.14058C14.1155 2.31845 14.2032 2.53243 14.2032 2.93481C14.2032 3.37204 14.1013 3.58633 13.9916 3.77356C13.911 3.91094 13.813 4.01979 13.813 4.34062C13.813 4.61033 13.8806 4.73719 13.9499 4.85885C13.9987 4.94456 14.047 5.02921 14.0881 5.12961C14.1699 5.32901 14.0745 5.55731 13.8751 5.63911C13.6757 5.72091 13.4474 5.62542 13.3656 5.42602C13.2334 5.10386 13.032 4.95018 13.032 4.34062C13.032 3.7991 13.1818 3.61058 13.3177 3.37869C13.3756 3.28 13.4222 3.1653 13.4222 2.93481C13.4222 2.58242 13.3045 2.47899 13.2183 2.32321C13.1197 2.14534 13.032 1.93136 13.032 1.52899Z" fill="black"/>
  <path fill-rule="evenodd" clip-rule="evenodd" d="M8.72913 1.3905C8.72913 1.17498 8.90411 1 9.11963 1C9.33516 1 9.51014 1.17498 9.51014 1.3905C9.51014 1.74289 9.62783 1.84632 9.71411 2.00209C9.81263 2.17996 9.90038 2.39395 9.90038 2.79631C9.90038 3.23355 9.79841 3.44784 9.6887 3.63507C9.60819 3.77245 9.51014 3.8813 9.51014 4.20212C9.51014 4.47184 9.57777 4.59869 9.64704 4.72037C9.69584 4.80606 9.74411 4.89072 9.7853 4.99112C9.86709 5.19053 9.77162 5.41882 9.57222 5.50062C9.37282 5.58241 9.14452 5.48694 9.06273 5.28754C8.93057 4.96537 8.72913 4.81169 8.72913 4.20212C8.72913 3.66061 8.87898 3.47209 9.01486 3.24021C9.0727 3.1415 9.11938 3.02681 9.11938 2.79631C9.11938 2.44393 9.00169 2.3405 8.9154 2.18472C8.81688 2.00685 8.72913 1.79287 8.72913 1.3905Z" fill="black"/>
</svg>
