<svg width="20" height="20" viewBox="0 0 20 20" fill="none" xmlns="http://www.w3.org/2000/svg">
  <g clip-path="url(#clip0_368_898)">
    <path fill-rule="evenodd" clip-rule="evenodd" d="M5.64172 18.0779C5.53448 18.2378 5.31682 18.2811 5.15596 18.1745C4.99511 18.0679 4.95157 17.8515 5.05881 17.6915L9.70854 10.7575C9.77351 10.6606 9.88288 10.6024 10 10.6024C10.1171 10.6024 10.2265 10.6606 10.2915 10.7575L14.9412 17.6915C15.0484 17.8515 15.0049 18.0679 14.844 18.1745C14.6832 18.2811 14.4655 18.2378 14.3583 18.0779C14.3583 18.0779 11.0186 13.0976 10 11.5785L5.64172 18.0779Z" fill="black"/>
    <path fill-rule="evenodd" clip-rule="evenodd" d="M14.0462 16.8055C14.2326 16.8081 14.349 16.9357 14.3061 17.0903C14.2632 17.2449 14.077 17.3683 13.8906 17.3657L5.8095 17.2526C5.69659 17.251 5.60416 17.2028 5.56317 17.124C5.52219 17.0452 5.53808 16.9463 5.60553 16.8604L10.4326 10.7168C10.5439 10.5751 10.7606 10.5103 10.9161 10.5721C11.0716 10.634 11.1075 10.7993 10.9962 10.9409C10.9962 10.9409 7.52917 15.3536 6.47168 16.6995L14.0462 16.8055Z" fill="black"/>
    <path fill-rule="evenodd" clip-rule="evenodd" d="M16.4764 8.37701C16.4764 11.9531 13.573 14.8565 9.99691 14.8565C6.4208 14.8565 3.51746 11.9531 3.51746 8.37701H16.4764Z" fill="#D32F2F"/>
    <path fill-rule="evenodd" clip-rule="evenodd" d="M15.0599 11.7588C15.1798 11.5797 15.4226 11.5317 15.6017 11.6516C15.7808 11.7715 15.8288 12.0143 15.7088 12.1933C14.4759 14.0343 12.3769 15.247 9.99692 15.247C6.20528 15.247 3.12695 12.1687 3.12695 8.37702C3.12695 8.16135 3.30179 7.98651 3.51746 7.98651H16.4764C16.6921 7.98651 16.8669 8.16135 16.8669 8.37702C16.8669 8.96992 16.7916 9.54539 16.6501 10.0944C16.5963 10.3031 16.3831 10.4288 16.1744 10.375C15.9657 10.3212 15.84 10.1081 15.8938 9.89941C15.9879 9.53421 16.049 9.15578 16.0736 8.76752H3.92034C4.12194 11.9464 6.76753 14.466 9.99694 14.466C12.1066 14.466 13.9671 13.3906 15.06 11.7588H15.0599Z" fill="black"/>
    <path fill-rule="evenodd" clip-rule="evenodd" d="M5.0376 2.49921C5.0376 2.28368 5.21257 2.1087 5.42809 2.1087C5.64362 2.1087 5.8186 2.28368 5.8186 2.49921C5.8186 2.85159 5.9363 2.95502 6.02257 3.11079C6.1211 3.28867 6.20884 3.50265 6.20884 3.90502C6.20884 4.34226 6.10688 4.55655 5.99716 4.74377C5.91665 4.88116 5.8186 4.99001 5.8186 5.31083C5.8186 5.58054 5.88624 5.7074 5.95551 5.82907C6.00431 5.91478 6.05257 5.99943 6.09376 6.09983C6.17556 6.29923 6.08008 6.52752 5.88068 6.60932C5.68128 6.69112 5.45299 6.59564 5.37119 6.39624C5.23903 6.07407 5.0376 5.9204 5.0376 5.31083C5.0376 4.76931 5.18745 4.58079 5.32332 4.34891C5.38117 4.25021 5.42784 4.13552 5.42784 3.90502C5.42784 3.55263 5.31015 3.4492 5.22387 3.29343C5.12534 3.11555 5.0376 2.90157 5.0376 2.49921Z" fill="black"/>
    <path fill-rule="evenodd" clip-rule="evenodd" d="M13.7849 2.49921C13.7849 2.28368 13.9599 2.1087 14.1754 2.1087C14.3909 2.1087 14.5659 2.28368 14.5659 2.49921C14.5659 2.85159 14.6836 2.95502 14.7699 3.11079C14.8684 3.28867 14.9562 3.50265 14.9562 3.90502C14.9562 4.34226 14.8542 4.55655 14.7445 4.74377C14.664 4.88116 14.5659 4.99001 14.5659 5.31083C14.5659 5.58054 14.6336 5.7074 14.7028 5.82907C14.7516 5.91478 14.7999 5.99943 14.8411 6.09983C14.9229 6.29923 14.8274 6.52752 14.628 6.60932C14.4286 6.69112 14.2003 6.59564 14.1185 6.39624C13.9864 6.07407 13.7849 5.9204 13.7849 5.31083C13.7849 4.76931 13.9348 4.58079 14.0706 4.34891C14.1285 4.25021 14.1752 4.13552 14.1752 3.90502C14.1752 3.55263 14.0575 3.4492 13.9712 3.29343C13.8727 3.11555 13.7849 2.90157 13.7849 2.49921Z" fill="black"/>
    <path fill-rule="evenodd" clip-rule="evenodd" d="M9.41125 1.2496C9.41125 1.03408 9.58624 0.8591 9.80176 0.8591C10.0173 0.8591 10.1923 1.03408 10.1923 1.2496C10.1923 1.60199 10.31 1.70542 10.3962 1.86119C10.4948 2.03906 10.5825 2.25305 10.5825 2.65541C10.5825 3.09265 10.4805 3.30694 10.3708 3.49417C10.2903 3.63155 10.1923 3.7404 10.1923 4.06122C10.1923 4.33094 10.2599 4.45779 10.3292 4.57947C10.378 4.66516 10.4262 4.74982 10.4674 4.85023C10.5492 5.04963 10.4537 5.27792 10.2543 5.35972C10.0549 5.44151 9.82665 5.34604 9.74485 5.14664C9.6127 4.82447 9.41125 4.67079 9.41125 4.06122C9.41125 3.51971 9.5611 3.33119 9.69699 3.09931C9.75483 3.0006 9.80151 2.88591 9.80151 2.65541C9.80151 2.30303 9.68381 2.1996 9.59753 2.04382C9.49901 1.86595 9.41125 1.65197 9.41125 1.2496Z" fill="black"/>
    <path d="M13.8136 19.0362C14.7496 19.0362 15.5085 18.3169 15.5085 17.4297C15.5085 16.5425 14.7496 15.8233 13.8136 15.8233C12.8775 15.8233 12.1187 16.5425 12.1187 17.4297C12.1187 18.3169 12.8775 19.0362 13.8136 19.0362Z" fill="black"/>
    <path d="M13.8135 18.233C14.2816 18.233 14.661 17.8733 14.661 17.4297C14.661 16.9861 14.2816 16.6265 13.8135 16.6265C13.3455 16.6265 12.9661 16.9861 12.9661 17.4297C12.9661 17.8733 13.3455 18.233 13.8135 18.233Z" fill="#FBFBFB"/>
  </g>
  <defs>
    <clipPath id="clip0_368_898">
      <rect width="20" height="20" fill="white"/>
    </clipPath>
  </defs>
</svg>
