<svg xmlns="http://www.w3.org/2000/svg" width="19" height="18" viewBox="0 0 19 18" fill="none">
  <path fill-rule="evenodd" clip-rule="evenodd" d="M17.66 9.19319C17.66 8.59047 17.6059 8.01092 17.5055 7.45456H9.5V10.7425H14.0745C13.8775 11.805 13.2786 12.7052 12.3784 13.308V15.4407H15.1255C16.7327 13.9609 17.66 11.7818 17.66 9.19319Z" fill="#4285F4"/>
  <path fill-rule="evenodd" clip-rule="evenodd" d="M9.50021 17.4999C11.7952 17.4999 13.7193 16.7387 15.1257 15.4405L12.3786 13.3078C11.6175 13.8178 10.6438 14.1192 9.50021 14.1192C7.28634 14.1192 5.41248 12.6239 4.74407 10.6149H1.9043V12.8171C3.30293 15.5951 6.17748 17.4999 9.50021 17.4999Z" fill="#34A853"/>
  <path fill-rule="evenodd" clip-rule="evenodd" d="M4.74386 10.6151C4.57386 10.1051 4.47727 9.56029 4.47727 9.00007C4.47727 8.43984 4.57386 7.89507 4.74386 7.38507V5.18279H1.90409C1.32841 6.33029 1 7.62847 1 9.00007C1 10.3717 1.32841 11.6698 1.90409 12.8173L4.74386 10.6151Z" fill="#FBBC05"/>
  <path fill-rule="evenodd" clip-rule="evenodd" d="M9.50001 3.88068C10.748 3.88068 11.8684 4.30955 12.7493 5.15182L15.1873 2.71386C13.7152 1.34227 11.7911 0.5 9.50001 0.5C6.17728 0.5 3.30273 2.40477 1.9041 5.18273L4.74387 7.385C5.41228 5.37591 7.28614 3.88068 9.50001 3.88068Z" fill="#EA4335"/>
</svg>
