<svg width="17" height="22" viewBox="0 0 17 22" fill="none" xmlns="http://www.w3.org/2000/svg">
  <path d="M7.62914 0.191593C7.17672 0.215019 6.47729 0.326941 6.00407 0.449278C4.78461 0.769434 3.57035 1.42537 2.68111 2.24267C1.89847 2.96628 1.33684 3.7081 0.855818 4.66336C0.403397 5.55876 0.143384 6.42292 0.0393793 7.37558C-0.142629 9.018 0.309792 10.7958 1.32384 12.433C1.90107 13.3622 2.96192 14.7964 3.92137 15.9469C4.33739 16.4441 4.45439 16.5768 5.03942 17.2301C5.23183 17.441 5.38264 17.618 5.37744 17.6232C5.37224 17.6284 5.22143 17.6622 5.04462 17.7013C3.76796 17.9824 2.82931 18.5186 2.5017 19.1589C2.17148 19.8044 2.5381 20.5436 3.44554 21.059C5.33063 22.1314 9.51163 22.3214 12.0104 21.452C12.962 21.1189 13.5678 20.6868 13.8356 20.148C13.9474 19.9215 13.9474 19.9163 13.9474 19.6456C13.9474 19.3879 13.9422 19.3593 13.8642 19.2005C13.534 18.5316 12.5876 17.9772 11.2667 17.683L11.0015 17.6258L11.3265 17.2614C12.9074 15.494 14.4155 13.5262 15.1643 12.256C15.8377 11.1185 16.22 9.97587 16.3448 8.7473C16.3838 8.35687 16.3864 8.24234 16.3578 7.85971C16.207 5.72014 15.3281 3.84345 13.7914 2.38583C12.1794 0.85533 9.97706 0.0718594 7.62914 0.191593ZM9.34523 1.13384C10.9391 1.39673 12.26 2.06307 13.365 3.1667C13.8148 3.6144 14.002 3.83825 14.3011 4.29375C15.2423 5.71493 15.6817 7.52915 15.4555 9.06485C15.2865 10.2049 14.8185 11.2825 13.9136 12.6152C12.6396 14.4919 10.9209 16.5482 8.96821 18.5368C8.67179 18.8361 8.37798 19.1407 8.31298 19.2135L8.19337 19.3411L7.70195 18.8361C5.59585 16.6653 3.93957 14.7157 2.67071 12.9145C1.61765 11.4205 1.13403 10.3767 0.918221 9.12993C0.853218 8.77073 0.840218 7.90657 0.89222 7.4875C1.16003 5.29066 2.28589 3.4426 4.09297 2.23486C4.94061 1.67003 6.01707 1.26138 7.01811 1.12603C7.18192 1.1026 7.34573 1.07918 7.38213 1.07397C7.41853 1.06877 7.79815 1.06616 8.22717 1.07137C8.8746 1.07658 9.06441 1.08699 9.34523 1.13384ZM6.90631 19.2187C7.34833 19.6742 7.77995 20.1193 7.86315 20.2078L8.01396 20.3718H8.17777H8.34158L9.29842 19.4061C9.82365 18.8752 10.2631 18.4275 10.2709 18.4144C10.3099 18.352 11.2121 18.529 11.7243 18.6956C12.364 18.9038 12.9256 19.2318 13.0816 19.4868C13.1466 19.5962 13.1518 19.6118 13.1232 19.7185C13.0634 19.958 12.6916 20.2599 12.2028 20.4733C11.1913 20.9106 9.86005 21.1345 8.21417 21.1371C6.92711 21.1397 5.89746 21.0199 4.95102 20.7597C3.94217 20.4811 3.22193 20.0334 3.22193 19.6847C3.22193 19.3255 3.93957 18.8726 4.92761 18.6123C5.27863 18.5212 5.89226 18.3988 6.03527 18.3962C6.09247 18.3936 6.23808 18.5316 6.90631 19.2187Z" fill="black"/>
  <path fill-rule="evenodd" clip-rule="evenodd" d="M3.00604 10.6673C2.04727 8.34569 3.00604 5.71158 5.30709 4.28291C7.36846 2.98818 9.09425 2.98818 11.1556 4.28291C13.3608 5.66694 14.2716 8.21176 13.4087 10.6226C12.6896 12.6317 10.2448 14.4175 8.23135 14.4175C6.31381 14.4175 3.821 12.6317 3.00604 10.6673ZM5.88245 5.19925C4.04161 6.34218 3.27459 8.44947 4.04161 10.3067C4.69357 11.8783 6.68782 13.3069 8.22186 13.3069C9.8326 13.3069 11.7885 11.8783 12.3638 10.271C13.0541 8.34232 12.3254 6.30647 10.5613 5.19925C8.91217 4.16346 7.53154 4.16346 5.88245 5.19925ZM9.33098 5.58105C9.91435 5.72628 10.3016 6.14864 10.3915 6.73829C10.4075 6.84634 10.382 7.10393 10.3406 7.23495C10.067 8.12283 8.97019 8.48676 8.15522 7.96128C8.10285 7.92718 8.04886 7.88845 8.03743 7.87453C8.02599 7.86061 8.00963 7.84976 8.00143 7.84974C7.99487 7.84972 7.94715 7.89586 7.89611 7.95434C7.84344 8.01127 7.72824 8.12818 7.63774 8.21431L7.47321 8.37119L7.5401 8.47477C7.73587 8.78239 7.79369 9.14205 7.70071 9.47966C7.66914 9.59837 7.57828 9.79405 7.52062 9.86947C7.50085 9.89564 7.48764 9.92183 7.4909 9.92956C7.49416 9.93574 7.5775 10.0255 7.67884 10.1261C7.77855 10.2267 7.88968 10.3427 7.92398 10.3829L7.98442 10.4556L8.05183 10.4049C8.47935 10.0791 9.10607 10.0146 9.59239 10.246C10.1131 10.4913 10.4133 10.9689 10.3803 11.4981C10.3682 11.6955 10.3349 11.8204 10.2507 11.9883C10.1682 12.1562 10.071 12.2825 9.91962 12.4162C9.65149 12.6546 9.32799 12.774 8.95734 12.7744C8.56865 12.7732 8.21485 12.6395 7.94507 12.3918C7.63117 12.1008 7.48486 11.7162 7.53379 11.3106C7.55405 11.1409 7.62199 10.9328 7.69622 10.8081L7.74734 10.7249L7.61491 10.6026C7.54298 10.5345 7.43184 10.42 7.36648 10.3473C7.30277 10.2746 7.24558 10.2096 7.23741 10.2019C7.23088 10.1942 7.18324 10.2156 7.12735 10.2525C6.9975 10.3369 6.81847 10.4151 6.65761 10.4563C6.4672 10.5051 6.10639 10.504 5.91959 10.4541C5.39852 10.3136 4.99154 9.90357 4.88822 9.41571C4.85272 9.24434 4.86515 8.96203 4.9149 8.80018C4.98786 8.56433 5.13457 8.34414 5.3336 8.17193C5.82213 7.74756 6.55543 7.69266 7.10203 8.03991L7.23132 8.12206L7.38607 7.94972C7.47167 7.85586 7.59016 7.73433 7.64775 7.6805L7.75468 7.58208L7.70088 7.4878C7.60143 7.31316 7.55932 7.15566 7.5519 6.92266C7.54288 6.68194 7.56631 6.54315 7.64893 6.3598C7.8208 5.97459 8.1941 5.67639 8.63398 5.57433C8.81125 5.5332 9.15237 5.53577 9.33098 5.58105Z" fill="black"/>
  <path fill-rule="evenodd" clip-rule="evenodd" d="M3.00604 10.6673C2.04727 8.34569 3.00604 5.71158 5.30709 4.28291C7.36846 2.98818 9.09425 2.98818 11.1556 4.28291C13.3608 5.66694 14.2716 8.21176 13.4087 10.6226C12.6896 12.6317 10.2448 14.4175 8.23135 14.4175C6.31381 14.4175 3.821 12.6317 3.00604 10.6673ZM5.88245 5.19925C4.04161 6.34218 3.27459 8.44947 4.04161 10.3067C4.69357 11.8783 6.68782 13.3069 8.22186 13.3069C9.8326 13.3069 11.7885 11.8783 12.3638 10.271C13.0541 8.34232 12.3254 6.30647 10.5613 5.19925C8.91217 4.16346 7.53154 4.16346 5.88245 5.19925ZM9.33098 5.58105C9.91435 5.72628 10.3016 6.14864 10.3915 6.73829C10.4075 6.84634 10.382 7.10393 10.3406 7.23495C10.067 8.12283 8.97019 8.48676 8.15522 7.96128C8.10285 7.92718 8.04886 7.88845 8.03743 7.87453C8.02599 7.86061 8.00963 7.84976 8.00143 7.84974C7.99487 7.84972 7.94715 7.89586 7.89611 7.95434C7.84344 8.01127 7.72824 8.12818 7.63774 8.21431L7.47321 8.37119L7.5401 8.47477C7.73587 8.78239 7.79369 9.14205 7.70071 9.47966C7.66914 9.59837 7.57828 9.79405 7.52062 9.86947C7.50085 9.89564 7.48764 9.92183 7.4909 9.92956C7.49416 9.93574 7.5775 10.0255 7.67884 10.1261C7.77855 10.2267 7.88968 10.3427 7.92398 10.3829L7.98442 10.4556L8.05183 10.4049C8.47935 10.0791 9.10607 10.0146 9.59239 10.246C10.1131 10.4913 10.4133 10.9689 10.3803 11.4981C10.3682 11.6955 10.3349 11.8204 10.2507 11.9883C10.1682 12.1562 10.071 12.2825 9.91962 12.4162C9.65149 12.6546 9.32799 12.774 8.95734 12.7744C8.56865 12.7732 8.21485 12.6395 7.94507 12.3918C7.63117 12.1008 7.48486 11.7162 7.53379 11.3106C7.55405 11.1409 7.62199 10.9328 7.69622 10.8081L7.74734 10.7249L7.61491 10.6026C7.54298 10.5345 7.43184 10.42 7.36648 10.3473C7.30277 10.2746 7.24558 10.2096 7.23741 10.2019C7.23088 10.1942 7.18324 10.2156 7.12735 10.2525C6.9975 10.3369 6.81847 10.4151 6.65761 10.4563C6.4672 10.5051 6.10639 10.504 5.91959 10.4541C5.39852 10.3136 4.99154 9.90357 4.88822 9.41571C4.85272 9.24434 4.86515 8.96203 4.9149 8.80018C4.98786 8.56433 5.13457 8.34414 5.3336 8.17193C5.82213 7.74756 6.55543 7.69266 7.10203 8.03991L7.23132 8.12206L7.38607 7.94972C7.47167 7.85586 7.59016 7.73433 7.64775 7.6805L7.75468 7.58208L7.70088 7.4878C7.60143 7.31316 7.55932 7.15566 7.5519 6.92266C7.54288 6.68194 7.56631 6.54315 7.64893 6.3598C7.8208 5.97459 8.1941 5.67639 8.63398 5.57433C8.81125 5.5332 9.15237 5.53577 9.33098 5.58105Z" fill="black"/>
  <path d="M10.3915 6.73828C10.3016 6.14863 9.91436 5.72626 9.33099 5.58103C9.15237 5.53575 8.81125 5.53319 8.63399 5.57432C8.1941 5.67637 7.8208 5.97458 7.64893 6.35978C7.56631 6.54314 7.54288 6.68193 7.55191 6.92264C7.55932 7.15564 7.60143 7.31314 7.70088 7.48779L7.75469 7.58206L7.64775 7.68049C7.59017 7.73432 7.47167 7.85585 7.38607 7.94971L7.23132 8.12205L7.10204 8.03989C6.55543 7.69265 5.82214 7.74754 5.33361 8.17192C5.13458 8.34412 4.98787 8.56432 4.91491 8.80016C4.86516 8.96201 4.85272 9.24432 4.88823 9.41569C4.99154 9.90355 5.39853 10.3136 5.91959 10.4541C6.10639 10.504 6.4672 10.5051 6.65761 10.4563C6.81848 10.4151 6.99751 10.3369 7.12736 10.2525C7.18325 10.2156 7.23088 10.1941 7.23741 10.2019C7.24559 10.2096 7.30277 10.2746 7.36649 10.3473C7.43184 10.42 7.54298 10.5345 7.61491 10.6026L7.74734 10.7249L7.69622 10.8081C7.622 10.9328 7.55405 11.1409 7.5338 11.3106C7.48486 11.7162 7.63117 12.1008 7.94508 12.3918C8.21485 12.6395 8.56865 12.7732 8.95734 12.7744C9.328 12.7739 9.65149 12.6546 9.91963 12.4162C10.071 12.2824 10.1682 12.1562 10.2507 11.9883C10.3349 11.8204 10.3682 11.6955 10.3803 11.498C10.4133 10.9689 10.1131 10.4913 9.59239 10.2459C9.10607 10.0146 8.47935 10.0791 8.05184 10.4049L7.98442 10.4556L7.92399 10.3829C7.88968 10.3427 7.77855 10.2266 7.67885 10.126C7.5775 10.0255 7.49416 9.93572 7.4909 9.92954C7.48765 9.92182 7.50086 9.89563 7.52063 9.86946C7.57828 9.79403 7.66915 9.59835 7.70071 9.47965C7.7937 9.14203 7.73587 8.78237 7.5401 8.47475L7.47321 8.37118L7.63775 8.21429C7.72824 8.12816 7.84344 8.01125 7.89611 7.95432C7.94715 7.89584 7.99487 7.8497 8.00143 7.84972C8.00963 7.84974 8.026 7.86059 8.03743 7.87451C8.04886 7.88843 8.10285 7.92717 8.15522 7.96127C8.97019 8.48674 10.067 8.12282 10.3406 7.23493C10.382 7.10391 10.4075 6.84633 10.3915 6.73828ZM9.93183 11.7158C9.85231 11.9516 9.65807 12.1639 9.41494 12.282C8.80877 12.5749 8.07517 12.2364 7.94774 11.6034C7.91871 11.4583 7.92059 11.3873 7.95057 11.2516C8.0155 10.9664 8.24439 10.6924 8.5187 10.5698C8.68459 10.4963 8.78635 10.475 8.96511 10.4755C9.4522 10.477 9.87582 10.8192 9.96936 11.2885C9.99514 11.4244 9.9832 11.5617 9.93183 11.7158ZM9.96545 7.1073C9.8791 7.42333 9.62567 7.67715 9.28745 7.78722C9.17416 7.82391 9.13642 7.82843 8.95438 7.82788C8.77398 7.82734 8.73627 7.8226 8.63963 7.78683C8.33167 7.67636 8.09461 7.45348 8.00039 7.18782C7.94514 7.03491 7.93098 6.85743 7.96262 6.71558C8.01092 6.49818 8.15602 6.27027 8.33361 6.13194C8.44871 6.04434 8.65566 5.95547 8.80827 5.93124C9.32353 5.84793 9.83902 6.18119 9.96689 6.68146C9.99602 6.79881 9.99535 6.9963 9.96545 7.1073ZM7.30576 9.39052C7.23598 9.65569 7.01042 9.91267 6.74105 10.0307C6.45033 10.1579 6.13053 10.1569 5.85216 10.0265C5.63928 9.92709 5.48561 9.7816 5.37642 9.57607C5.09774 9.0522 5.39345 8.4205 6.00912 8.22794C6.17002 8.1775 6.4521 8.17835 6.60774 8.22973C7.1287 8.401 7.4304 8.90489 7.30576 9.39052Z" fill="black"/>
  <path fill-rule="evenodd" clip-rule="evenodd" d="M13.365 3.16675C12.2599 2.06312 10.9391 1.39678 9.3452 1.13389C9.06439 1.08704 8.87458 1.07663 8.22715 1.07142C7.79813 1.06622 7.41851 1.06882 7.38211 1.07402L7.01809 1.12608C6.01704 1.26143 4.94059 1.67009 4.09295 2.23491C2.28586 3.44266 1.16001 5.29071 0.892195 7.48755C0.840193 7.90662 0.853193 8.77078 0.918197 9.12998C1.13401 10.3768 1.61763 11.4205 2.67068 12.9146C3.93954 14.7158 5.59582 16.6654 7.70192 18.8362L8.19335 19.3411L8.31295 19.2136C8.37796 19.1407 8.67177 18.8362 8.96818 18.5368C10.9209 16.5482 12.6396 14.4919 13.9136 12.6153C14.8185 11.2826 15.2865 10.205 15.4555 9.06491C15.6817 7.5292 15.2423 5.71498 14.301 4.2938C14.002 3.8383 13.8148 3.61445 13.365 3.16675ZM3.00601 10.6673C2.04724 8.34572 3.00601 5.71161 5.30707 4.28294C7.36843 2.98821 9.09422 2.98821 11.1556 4.28294C13.3608 5.66696 14.2716 8.21178 13.4087 10.6227C12.6896 12.6317 10.2447 14.4176 8.23132 14.4176C6.31378 14.4176 3.82097 12.6317 3.00601 10.6673Z" fill="black"/>
</svg>
