<svg width="24" height="24" viewBox="0 0 24 24" fill="none" xmlns="http://www.w3.org/2000/svg">
  <path d="M14.5713 16.0273C14.8101 16.0274 15.0035 16.112 15.126 16.2188C15.2464 16.3238 15.2851 16.4337 15.2852 16.5225V24H8.71387V16.5225C8.71397 16.4338 8.75286 16.3237 8.87305 16.2188C8.99547 16.112 9.18897 16.0275 9.42773 16.0273H14.5713ZM12 0C13.9025 0 15.5001 1.1946 18.6943 3.58301L20.4082 4.86426C22.1754 6.18565 23.0588 6.84687 23.5293 7.73926C23.9997 8.63157 24 9.64659 24 11.6768V18.0186C24 20.838 24.0001 22.2481 22.9961 23.124C22.0067 23.9871 20.423 23.9988 17.2852 23.999V16.5225C17.2849 15.0207 15.9375 14.0275 14.5713 14.0273H9.42773C8.06169 14.0277 6.71408 15.0209 6.71387 16.5225V23.999C3.57667 23.9988 1.99316 23.987 1.00391 23.124C-0.000142781 22.2481 2.1596e-09 20.838 0 18.0186V11.6768C3.70506e-10 9.64659 0.000322129 8.63157 0.470703 7.73926C0.941208 6.84687 1.82456 6.18565 3.5918 4.86426L5.30566 3.58301C8.49992 1.1946 10.0975 4.98909e-08 12 0Z" fill="#222222"/>
</svg>
