<svg width="20" height="20" viewBox="0 0 20 20" fill="none" xmlns="http://www.w3.org/2000/svg">
  <path fill-rule="evenodd" clip-rule="evenodd" d="M17.58 15.1H18.26C18.42 15.1 18.56 15.24 18.56 15.4C18.56 15.56 18.42 15.7 18.26 15.7H1.75996C1.59996 15.7 1.45996 15.56 1.45996 15.4C1.45996 15.24 1.59996 15.1 1.75996 15.1H2.35996L5.09996 10.42L6.83996 7.42C7.01996 7.1 7.33996 6.9 7.71996 6.9C8.01996 6.9 8.27996 7.02 8.47996 7.24L9.87996 4.8C10.06 4.48 10.4 4.28 10.76 4.28C11.12 4.28 11.46 4.48 11.64 4.8L17.58 15.1ZM10.38 5.1L8.93996 7.6C8.85996 7.74 8.85996 7.9 8.93996 8.04L13.02 15.1H16.88L11.1 5.1C11.04 4.96 10.88 4.88 10.74 4.88C10.6 4.88 10.46 4.96 10.38 5.1ZM13 12.3C13.06 12.4 13.16 12.46 13.26 12.46C13.3 12.46 13.36 12.44 13.4 12.4C13.54 12.32 13.6 12.14 13.52 12L11.94 9.16C11.86 9.02 11.68 8.96 11.54 9.04C11.4 9.12 11.34 9.3 11.42 9.44L13 12.3ZM7.31996 7.72C7.39996 7.58 7.53996 7.5 7.67996 7.5C7.83996 7.5 7.97996 7.58 8.03996 7.72L9.79996 10.78L12.16 14.88L12.3 15.12H3.05996L5.43996 11L7.31996 7.72Z" fill="black"/>
  <path d="M7.67996 7.5C7.53996 7.5 7.39996 7.58 7.31996 7.72L5.43996 11L3.05996 15.12H12.3L12.16 14.88L9.79996 10.78L8.03996 7.72C7.97996 7.58 7.83996 7.5 7.67996 7.5Z" fill="#66BB6A"/>
  <path fill-rule="evenodd" clip-rule="evenodd" d="M8.93996 7.6L10.38 5.1C10.46 4.96 10.6 4.88 10.74 4.88C10.88 4.88 11.04 4.96 11.1 5.1L16.88 15.1H13.02L8.93996 8.04C8.85996 7.9 8.85996 7.74 8.93996 7.6ZM13 12.3C13.06 12.4 13.16 12.46 13.26 12.46C13.3 12.46 13.36 12.44 13.4 12.4C13.54 12.32 13.6 12.14 13.52 12L11.94 9.16C11.86 9.02 11.68 8.96 11.54 9.04C11.4 9.12 11.34 9.3 11.42 9.44L13 12.3Z" fill="#2E7D32"/>
</svg>
