<svg width="20" height="20" viewBox="0 0 20 20" fill="none" xmlns="http://www.w3.org/2000/svg">
  <path d="M16.4584 12.1458V11.3958C16.8334 11.2708 17.0834 10.9271 17.0834 10.5208V9.27084C17.0834 8.73959 16.6771 8.33334 16.1459 8.33334H8.64587C8.11462 8.33334 7.70837 8.73959 7.70837 9.27084V10.5208C7.70837 10.9271 7.95837 11.2708 8.33337 11.3958V12.1458C7.95837 12.2708 7.70837 12.6146 7.70837 13.0208C7.70837 13.4271 7.95837 13.7708 8.33337 13.8958V16.1458C8.33337 16.3333 8.45837 16.4583 8.64587 16.4583H9.89587C10.0834 16.4583 10.2084 16.3333 10.2084 16.1458V15.2083H14.5834V16.1458C14.5834 16.3333 14.7084 16.4583 14.8959 16.4583H16.1459C16.3334 16.4583 16.4584 16.3333 16.4584 16.1458V13.8958C16.8334 13.7708 17.0834 13.4271 17.0834 13.0208C17.0834 12.6146 16.8334 12.2708 16.4584 12.1458ZM10.2084 12.0833V11.4583H14.5834V12.0833H10.2084ZM8.95837 11.4583H9.58337V12.0833H8.95837V11.4583ZM15.2084 11.4583H15.8334V12.0833H15.2084V11.4583ZM8.33337 9.27084C8.33337 9.08334 8.45837 8.95834 8.64587 8.95834H16.1459C16.3334 8.95834 16.4584 9.08334 16.4584 9.27084V10.5208C16.4584 10.7083 16.3334 10.8333 16.1459 10.8333H14.8959H12.3959H9.89587H8.64587C8.45837 10.8333 8.33337 10.7083 8.33337 10.5208V9.27084ZM9.58337 15.8333H8.95837V13.9583H9.58337V15.8333ZM10.2084 14.5833V13.9583H12.3959H14.5834V14.5833H10.2084ZM15.8334 15.8333H15.2084V13.9583H15.8334V15.8333ZM16.1459 13.3333H14.8959H9.89587H8.64587C8.45837 13.3333 8.33337 13.2083 8.33337 13.0208C8.33337 12.8333 8.45837 12.7083 8.64587 12.7083H9.89587H14.8959H16.1459C16.3334 12.7083 16.4584 12.8333 16.4584 13.0208C16.4584 13.2083 16.3334 13.3333 16.1459 13.3333Z" fill="black"/>
  <path fill-rule="evenodd" clip-rule="evenodd" d="M8.64587 8.95834C8.45837 8.95834 8.33337 9.08334 8.33337 9.27084V10.5208C8.33337 10.7083 8.45837 10.8333 8.64587 10.8333H9.89587H12.3959H14.8959H16.1459C16.3334 10.8333 16.4584 10.7083 16.4584 10.5208V9.27084C16.4584 9.08334 16.3334 8.95834 16.1459 8.95834H8.64587Z" fill="#8D6E63"/>
  <path fill-rule="evenodd" clip-rule="evenodd" d="M14.8959 13.3333H16.1459C16.3334 13.3333 16.4584 13.2083 16.4584 13.0208C16.4584 12.8333 16.3334 12.7083 16.1459 12.7083H14.8959H9.89587H8.64587C8.45837 12.7083 8.33337 12.8333 8.33337 13.0208C8.33337 13.2083 8.45837 13.3333 8.64587 13.3333H9.89587H14.8959Z" fill="#8D6E63"/>
  <path fill-rule="evenodd" clip-rule="evenodd" d="M9.58337 11.4583H8.95837V12.0833H9.58337V11.4583Z" fill="#8D6E63"/>
  <path fill-rule="evenodd" clip-rule="evenodd" d="M8.95837 15.8333H9.58337V13.9583H8.95837V15.8333Z" fill="#8D6E63"/>
  <path fill-rule="evenodd" clip-rule="evenodd" d="M15.8334 11.4583H15.2084V12.0833H15.8334V11.4583Z" fill="#8D6E63"/>
  <path fill-rule="evenodd" clip-rule="evenodd" d="M15.2084 15.8333H15.8334V13.9583H15.2084V15.8333Z" fill="#8D6E63"/>
  <path d="M7.70837 10.8333C7.70837 8.70834 7.05212 3.33334 5.52087 3.33334C3.98962 3.33334 3.33337 8.70834 3.33337 10.8333C3.33337 12.9271 3.83337 13.6458 4.58337 13.8646V16.1458C4.58337 16.3333 4.70837 16.4583 4.89587 16.4583H6.14587C6.33337 16.4583 6.45837 16.3333 6.45837 16.1458V13.8646C7.20837 13.6458 7.70837 12.9271 7.70837 10.8333ZM5.83337 15.8333H5.20837V13.9583C5.30212 13.9583 5.42712 13.9583 5.52087 13.9583C5.61462 13.9583 5.73962 13.9583 5.83337 13.9583V15.8333ZM5.52087 13.3333C4.58337 13.3333 3.95837 13.3333 3.95837 10.8333C3.95837 7.70834 4.92712 3.95834 5.52087 3.95834C6.11462 3.95834 7.08337 7.70834 7.08337 10.8333C7.08337 13.3333 6.45837 13.3333 5.52087 13.3333Z" fill="black"/>
  <path fill-rule="evenodd" clip-rule="evenodd" d="M5.20837 13.9583V15.8333H5.83337V13.9583H5.52087H5.20837Z" fill="#8D6E63"/>
  <path fill-rule="evenodd" clip-rule="evenodd" d="M3.95837 10.8333C3.95837 13.3333 4.58337 13.3333 5.52087 13.3333C6.45837 13.3333 7.08337 13.3333 7.08337 10.8333C7.08337 7.70834 6.11462 3.95834 5.52087 3.95834C4.92712 3.95834 3.95837 7.70834 3.95837 10.8333Z" fill="#2E7D32"/>
</svg>
