<svg width="24" height="24" viewBox="0 0 24 24" fill="none" xmlns="http://www.w3.org/2000/svg">
  <path d="M7.41518 0.0201759C6.54797 0.160042 5.81717 0.587006 5.23578 1.29002C4.84602 1.76115 4.5472 2.37583 4.39454 3.02732C4.31659 3.35122 4.30685 3.45428 4.30685 4.05055C4.3036 4.66523 4.3101 4.73884 4.39454 5.07747C4.55694 5.74368 4.85251 6.33627 5.26176 6.82213C5.36894 6.94727 5.45664 7.05769 5.45664 7.06505C5.45664 7.06873 5.38843 7.0761 5.30398 7.07978C4.79405 7.10554 4.13146 7.33743 3.39741 7.75703C2.30283 8.37907 1.34143 9.47592 1.09783 10.374C1.01338 10.6942 1.02637 11.1433 1.12706 11.3936C1.28621 11.7911 1.70195 12.1003 2.10146 12.1223C2.53669 12.1481 2.86798 11.9567 3.14406 11.515C3.54682 10.8709 3.86512 10.536 4.3036 10.2894C4.5472 10.1532 4.91422 10.028 4.94995 10.0722C4.9597 10.0796 4.91747 10.6022 4.85576 11.2279C4.7973 11.8573 4.7096 12.7812 4.66088 13.2891C4.56994 14.2682 4.44976 14.9639 4.29061 15.4203C3.94307 16.4141 3.87162 16.9073 4.02102 17.3269C4.1412 17.6655 4.28736 17.8495 4.55694 18.0004C4.76482 18.1182 4.82328 18.1329 5.03765 18.1329C5.54434 18.1329 5.98282 17.8127 6.22642 17.2643C6.29138 17.1208 6.44078 16.8337 6.55771 16.6202C6.87277 16.0607 6.97995 15.8288 7.28526 15.0706C7.59707 14.2866 7.69126 14.1026 7.82768 14.0253C8.04529 13.8964 8.25317 14.1541 8.31163 14.6179C8.33112 14.7577 8.37009 15.3172 8.39933 15.8656C8.47403 17.3416 8.53574 17.6618 8.78909 17.982C9.22107 18.5231 10.0883 18.4532 10.4975 17.8422C10.6957 17.5477 10.7541 17.36 10.8028 16.8263C10.9523 15.2141 11.0107 13.8928 11.0107 12.0929C11.0107 10.9703 10.9945 10.6501 10.8938 9.77037L10.8743 9.60106L11.4524 9.58266C11.774 9.57162 12.0403 9.56794 12.0468 9.5753C12.0533 9.58266 12.0273 9.80718 11.9916 10.0759C11.8292 11.2169 11.8195 11.4341 11.8097 13.7492C11.8032 14.8129 11.7805 16.0165 11.7578 16.4214C11.7188 17.1023 11.7188 17.1796 11.7707 17.36C11.9007 17.8201 12.1865 18.1403 12.5795 18.2802C13.0505 18.4458 13.5344 18.2986 13.8625 17.89C14.1353 17.5551 14.1255 17.5808 14.4861 15.792C14.7329 14.5663 14.7881 14.3713 14.9246 14.2093C15.0382 14.0694 15.0805 14.0584 15.2234 14.121C15.4475 14.2167 15.6326 14.5847 15.834 15.343C16.0808 16.2779 16.6168 17.4962 16.9513 17.8827C17.6204 18.663 18.6825 18.4826 19.1015 17.5219C19.2054 17.2827 19.2119 17.2422 19.2119 16.8962V16.5282L19.0073 16.0018C18.65 15.0816 18.5818 14.6252 18.5786 13.1603C18.5786 12.1003 18.5168 10.8157 18.4324 10.0685L18.4129 9.90288L18.6825 9.77774C19.9525 9.19618 20.9691 8.39379 21.6609 7.4184C22.1221 6.76692 22.6775 5.67006 22.8497 5.07011C23.0056 4.53273 22.749 3.86652 22.2748 3.56838C22.1189 3.47268 22.0734 3.46164 21.7941 3.46164C21.5342 3.46164 21.4595 3.47636 21.3231 3.54998C21.0698 3.69352 20.8262 3.99902 20.628 4.41862C20.4039 4.9008 20.0759 5.38297 19.7121 5.7768C19.3873 6.13015 19.1599 6.31419 18.8222 6.50559C18.6045 6.63073 18.0589 6.86629 17.9874 6.86629C17.9679 6.86629 18.0524 6.74851 18.1726 6.60496C18.6695 6.00869 18.9196 5.36457 19.0073 4.46647C19.1275 3.24448 18.728 2.00776 17.9387 1.1612C17.0423 0.19685 15.7755 -0.156498 14.5283 0.207891C14.2067 0.29991 13.5604 0.66062 13.2811 0.899866C12.5178 1.55871 12.0338 2.54514 11.9169 3.6788C11.8065 4.74621 12.141 5.88723 12.7971 6.69698L12.9238 6.85157L12.6575 6.81845C12.3944 6.789 11.1017 6.81108 10.6729 6.85525L10.4488 6.87734L10.6275 6.63809C11.4427 5.55228 11.6571 3.87756 11.1601 2.49729C10.7151 1.26057 9.70177 0.325674 8.54224 0.0717049C8.23368 0.00177193 7.67502 -0.0203114 7.41518 0.0201759ZM7.16509 3.3549C7.38595 3.47636 7.47365 3.81499 7.34048 4.05791C7.27227 4.18674 7.12611 4.2898 7.00918 4.2898C6.80456 4.2898 6.59344 4.03215 6.59344 3.78922C6.59344 3.63831 6.71362 3.43955 6.85328 3.36226C6.99294 3.28128 7.02542 3.28128 7.16509 3.3549ZM9.48091 3.36226C9.68229 3.48372 9.76024 3.7561 9.66605 4.01006C9.49715 4.47383 8.932 4.32661 8.932 3.81867C8.932 3.63095 8.99371 3.48004 9.11389 3.3733C9.22107 3.2776 9.338 3.27392 9.48091 3.36226ZM14.1353 3.39539C14.4179 3.68616 14.2717 4.2898 13.9177 4.2898C13.6903 4.2898 13.45 3.97326 13.4922 3.72297C13.5507 3.37698 13.9307 3.1819 14.1353 3.39539ZM16.3472 3.34754C16.7467 3.53893 16.7239 4.11681 16.3115 4.25667C16.1978 4.29348 16.1653 4.2898 16.0581 4.22723C15.9217 4.14625 15.8178 3.95853 15.8178 3.78922C15.8178 3.63831 15.9379 3.43955 16.0776 3.36226C16.214 3.28128 16.214 3.28128 16.3472 3.34754ZM7.67827 5.59645C7.92837 5.71423 7.99657 5.73264 8.23043 5.73264C8.52275 5.73264 8.73062 5.67375 8.99371 5.52284C9.19833 5.40873 9.30877 5.4161 9.39646 5.5486C9.46142 5.64798 9.46142 5.65166 9.40296 5.79889C9.31851 6.01237 9.03593 6.2921 8.80857 6.3878C8.57472 6.49086 8.12974 6.52399 7.88939 6.46142C7.56134 6.37308 7.23005 6.14488 7.11962 5.92771C7.01568 5.73632 7.01243 5.67743 7.08389 5.54492C7.14235 5.4345 7.15859 5.42346 7.26902 5.44186C7.33398 5.4529 7.51912 5.51916 7.67827 5.59645ZM14.3951 5.54492C14.8726 5.81729 15.3435 5.80993 15.8567 5.51916C16.0646 5.40137 16.1555 5.40505 16.24 5.54124C16.2985 5.63694 16.305 5.67006 16.2757 5.77312C16.1945 6.05286 15.8665 6.33259 15.48 6.44669C14.9765 6.60128 14.3497 6.40989 14.0508 6.01605C13.8884 5.79889 13.8592 5.68847 13.9372 5.54492C14.0184 5.39401 14.132 5.39401 14.3951 5.54492Z" fill="black"/>
  <path d="M3.23825 14.2056C2.96867 14.2902 2.85499 14.4522 2.63413 15.0889C2.52694 15.3944 2.21838 16.2815 1.9488 17.0618C1.67597 17.8421 1.12706 19.4359 0.727552 20.6026C0.074704 22.5093 0 22.7448 0 22.9399C0.003248 23.3374 0.22736 23.7018 0.594384 23.8932L0.79576 23.9999H12.0338H23.2719L23.4441 23.8969C23.6779 23.757 23.8533 23.5693 23.941 23.3705C23.9995 23.2307 24.0092 23.1607 23.993 22.9399C23.9767 22.7043 23.9053 22.4761 23.3369 20.8713C22.7685 19.2702 21.8655 16.6753 21.3231 15.0926C21.112 14.4743 20.9788 14.2718 20.7385 14.1945C20.6638 14.1724 20.3357 14.154 19.9687 14.154C19.4068 14.154 19.3256 14.1614 19.3256 14.2129C19.3256 14.3638 19.4035 14.8202 19.462 14.9896L19.5237 15.1846H19.9005H20.2773L20.3844 15.3135C20.4429 15.3834 20.5176 15.5269 20.5533 15.6337C20.5891 15.7404 20.8489 16.4802 21.1282 17.279C21.4076 18.074 21.6317 18.7328 21.6252 18.7402C21.6187 18.7476 21.3718 18.8359 21.0795 18.939C20.7839 19.042 20.3065 19.2261 20.0207 19.3438C19.2119 19.6788 19.0528 19.723 18.6468 19.7046C18.3285 19.6898 18.2635 19.6751 17.7666 19.48C16.8051 19.0972 16.6362 19.0457 16.305 19.0236C15.7918 18.9905 15.5384 19.0825 14.9733 19.5095C14.8044 19.6383 14.6127 19.7561 14.5478 19.7782C14.3854 19.826 14.197 19.7855 13.8007 19.6089C13.2388 19.3586 12.8718 19.2665 12.3911 19.2445C12.0273 19.2261 11.9267 19.2371 11.6928 19.3034C10.7022 19.5868 10.0461 20.3155 8.98072 22.3179L8.61369 23.0061L4.90448 23.0172L1.19851 23.0246L1.10107 22.9178C0.938672 22.7301 0.818496 23.1276 2.44574 18.4053C3.04662 16.6643 3.5663 15.1736 3.59878 15.0926C3.66049 14.9491 3.80016 14.3381 3.80016 14.2129C3.80016 14.1651 3.76443 14.154 3.59878 14.1577C3.4851 14.1577 3.3227 14.1798 3.23825 14.2056ZM22.4697 21.1216C22.7587 21.9535 22.9958 22.6749 22.9958 22.7191C22.9958 22.7632 22.9601 22.8479 22.9179 22.9031L22.8399 23.0061L16.24 23.0172C9.95512 23.0246 9.64006 23.0209 9.65955 22.962C9.70502 22.8221 10.1955 21.9719 10.4618 21.567C10.9458 20.8308 11.3647 20.4076 11.735 20.2824C12.1995 20.1278 12.573 20.1757 13.4467 20.5143C14.0508 20.7462 14.0931 20.7572 14.3886 20.7572C14.7654 20.7572 14.9375 20.6873 15.3695 20.3671C15.7983 20.0469 15.9119 19.9953 16.2075 19.9953C16.4154 19.9953 16.5161 20.0211 16.8441 20.1536C17.9582 20.599 18.3155 20.691 18.8449 20.6615C19.3321 20.6321 19.3581 20.6247 21.5505 19.745C21.7486 19.6677 21.9142 19.6015 21.924 19.6015C21.9337 19.6015 22.1773 20.2861 22.4697 21.1216Z" fill="black"/>
  <path d="M7.16183 19.2408C6.76882 19.4874 6.71036 20.0653 7.04815 20.3855C7.14234 20.4776 7.32748 20.5585 7.43791 20.5585C7.65877 20.5585 7.95759 20.323 8.02579 20.0911C8.11349 19.7893 7.99656 19.4359 7.74972 19.2666C7.63604 19.1856 7.27226 19.1709 7.16183 19.2408Z" fill="black"/>
  <path d="M3.81966 19.804C3.57281 19.9033 3.38118 20.2088 3.37793 20.507C3.37793 20.7205 3.51435 21.0076 3.67675 21.1327C3.79692 21.2284 3.83915 21.2394 4.06001 21.2394C4.27113 21.2394 4.32635 21.2247 4.42703 21.1474C4.77457 20.8824 4.84603 20.3855 4.58943 20.0432C4.38481 19.7745 4.10873 19.6862 3.81966 19.804Z" fill="black"/>
</svg>
