<svg width="20" height="20" viewBox="0 0 20 20" fill="none" xmlns="http://www.w3.org/2000/svg">
  <path d="M8.37342 1.29333C7.89342 1.32 7.51342 1.72666 7.51342 2.22V5.38C7.51342 5.50666 7.42009 5.62 7.29342 5.63333C7.22676 5.64 7.16009 5.62 7.10676 5.57333C7.05342 5.52666 7.02676 5.46 7.02676 5.39333V2.22666C7.02676 1.72666 6.64676 1.32 6.16676 1.29333C5.91342 1.28 5.68009 1.36666 5.50009 1.54C5.32009 1.71333 5.22009 1.94666 5.22009 2.19333V5.38C5.22009 5.51333 5.12676 5.62 5.00009 5.63333C4.93342 5.64 4.86676 5.62 4.81342 5.57333C4.76009 5.53333 4.73342 5.46666 4.73342 5.4V2.22666C4.73342 1.72666 4.35342 1.32 3.87342 1.29333C3.62009 1.28 3.38676 1.36666 3.20676 1.54C3.02676 1.71333 2.92676 1.94666 2.92676 2.19333V5.57333C2.92676 7.31333 3.70009 8.86 4.89342 9.52666V17.4333C4.89342 18.1067 5.42676 18.6733 6.08009 18.7C6.09342 18.7 6.11342 18.7 6.12676 18.7C6.44676 18.7 6.75342 18.58 6.98009 18.3533C7.22676 18.12 7.36009 17.8 7.36009 17.46V9.53333C8.55342 8.86666 9.32676 7.32 9.32676 5.58V2.2C9.32676 1.94666 9.22676 1.72 9.04676 1.54666C8.86009 1.37333 8.62676 1.28666 8.37342 1.29333ZM6.69342 9.32666V17.4533C6.69342 17.7533 6.46676 18.0133 6.18009 18.04C6.02009 18.0533 5.86009 18.0067 5.74009 17.8933C5.62009 17.7867 5.55342 17.6333 5.55342 17.4733V9.32666C5.55342 9.2 5.48009 9.08 5.36009 9.02666C4.30009 8.54 3.58676 7.16 3.58676 5.58V2.21333C3.58676 2.08 3.68009 1.97333 3.80676 1.96C3.81342 1.96 3.82009 1.96 3.83342 1.96C3.89342 1.96 3.95342 1.98 3.99342 2.02C4.04009 2.06666 4.06676 2.13333 4.06676 2.2V5.37333C4.06676 5.87333 4.44676 6.28 4.92676 6.30666C5.18009 6.32 5.41342 6.23333 5.59342 6.06C5.77342 5.88666 5.87342 5.65333 5.87342 5.40666V2.21333C5.87342 2.08 5.96676 1.97333 6.09342 1.96C6.16009 1.95333 6.22676 1.97333 6.28009 2.02C6.33342 2.06666 6.36676 2.13333 6.36676 2.2V5.37333C6.36676 5.87333 6.74676 6.28 7.22676 6.30666C7.48009 6.32 7.71342 6.23333 7.89342 6.06C8.07342 5.88666 8.17342 5.65333 8.17342 5.40666V2.21333C8.17342 2.08 8.26676 1.97333 8.39342 1.96C8.46009 1.95333 8.52676 1.97333 8.58009 2.02C8.63342 2.06666 8.66009 2.13333 8.66009 2.2V5.58C8.66009 7.16 7.94676 8.54 6.88676 9.02666C6.77342 9.08 6.69342 9.2 6.69342 9.32666Z" fill="black"/>
  <path fill-rule="evenodd" clip-rule="evenodd" d="M6.69342 17.4533V9.32666C6.69342 9.2 6.77342 9.08 6.88676 9.02666C7.94676 8.54 8.66009 7.16 8.66009 5.58V2.2C8.66009 2.13333 8.63342 2.06666 8.58009 2.02C8.52676 1.97333 8.46009 1.95333 8.39342 1.96C8.26676 1.97333 8.17342 2.08 8.17342 2.21333V5.40666C8.17342 5.65333 8.07342 5.88666 7.89342 6.06C7.71342 6.23333 7.48009 6.32 7.22676 6.30666C6.74676 6.28 6.36676 5.87333 6.36676 5.37333V2.2C6.36676 2.13333 6.33342 2.06666 6.28009 2.02C6.22676 1.97333 6.16009 1.95333 6.09342 1.96C5.96676 1.97333 5.87342 2.08 5.87342 2.21333V5.40666C5.87342 5.65333 5.77342 5.88666 5.59342 6.06C5.41342 6.23333 5.18009 6.32 4.92676 6.30666C4.44676 6.28 4.06676 5.87333 4.06676 5.37333V2.2C4.06676 2.13333 4.04009 2.06666 3.99342 2.02C3.95342 1.98 3.89342 1.96 3.83342 1.96H3.80676C3.68009 1.97333 3.58676 2.08 3.58676 2.21333V5.58C3.58676 7.16 4.30009 8.54 5.36009 9.02666C5.48009 9.08 5.55342 9.2 5.55342 9.32666V17.4733C5.55342 17.6333 5.62009 17.7867 5.74009 17.8933C5.86009 18.0067 6.02009 18.0533 6.18009 18.04C6.46676 18.0133 6.69342 17.7533 6.69342 17.4533Z" fill="#FFA726"/>
  <path d="M16.0734 2.82667C15.3801 1.84 14.4734 1.29333 13.5267 1.29333C12.5734 1.29333 11.6667 1.84 10.9801 2.82667C10.3401 3.73334 9.97339 4.90667 9.97339 6.04C9.97339 7.76667 10.8601 9.14667 12.2867 9.65333V17.44C12.2867 18.1133 12.8201 18.68 13.4734 18.7067C13.4867 18.7067 13.5067 18.7067 13.5201 18.7067C13.8401 18.7067 14.1467 18.5867 14.3734 18.36C14.6201 18.1267 14.7534 17.8067 14.7534 17.4667V9.65333C16.1801 9.14667 17.0667 7.76667 17.0667 6.04C17.0801 4.90667 16.7134 3.73334 16.0734 2.82667ZM14.1001 9.40667V17.4533C14.1001 17.7533 13.8734 18.0133 13.5867 18.04C13.4201 18.0533 13.2667 18.0067 13.1467 17.8933C13.0267 17.7867 12.9601 17.6333 12.9601 17.4733V9.40667C12.9601 9.26 12.8601 9.12667 12.7134 9.08667C11.4334 8.73334 10.6401 7.56667 10.6401 6.04C10.6401 5.04 10.9601 4.00667 11.5201 3.20667C12.0867 2.4 12.7934 1.96 13.5267 1.96C14.2601 1.96 14.9667 2.4 15.5334 3.20667C16.0934 4.00667 16.4134 5.04 16.4134 6.04C16.4134 7.56667 15.6201 8.73334 14.3401 9.08667C14.2001 9.12667 14.1001 9.26 14.1001 9.40667Z" fill="black"/>
  <path fill-rule="evenodd" clip-rule="evenodd" d="M14.1001 17.4533V9.40667C14.1001 9.26 14.2001 9.12667 14.3401 9.08667C15.6201 8.73334 16.4134 7.56667 16.4134 6.04C16.4134 5.04 16.0934 4.00667 15.5334 3.20667C14.9667 2.4 14.2601 1.96 13.5267 1.96C12.7934 1.96 12.0867 2.4 11.5201 3.20667C10.9601 4.00667 10.6401 5.04 10.6401 6.04C10.6401 7.56667 11.4334 8.73334 12.7134 9.08667C12.8601 9.12667 12.9601 9.26 12.9601 9.40667V17.4733C12.9601 17.6333 13.0267 17.7867 13.1467 17.8933C13.2667 18.0067 13.4201 18.0533 13.5867 18.04C13.8734 18.0133 14.1001 17.7533 14.1001 17.4533Z" fill="#FFA726"/>
</svg>
